PathFileType	4	(X/Y/Z)	D:\TRACE\v60_Jaco2_6-2-23\JustBodyDRS_Motion3_1-platform.trc
DataRate	CameraRate	NumFrames	NumMarkers	Units	OrigDataRate	OrigDataStartFrame	OrigNumFrames
100.00	100.00	      42	5	mm	100.00	6126	      7000
Frame#	Time	Left_Front			Right_Front			Left_Aft			Right_Aft			Post			
		X1	Y1	Z1	X2	Y2	Z2	X3	Y3	Z3	X4	Y4	Z4	X5	Y5	Z5	

6126	61.250	-779.10181	43.53722	-641.97388	791.66119	41.74741	-618.95032	-710.28778	-12.60425	490.98456	704.33551	-19.02137	596.29059	16.12962	1355.82520	-888.56934	
6127	61.260	-779.18457	43.44368	-641.99200	791.41656	41.53347	-619.12024	-710.39911	-12.49470	490.94345	704.11249	-18.89301	596.23035	15.83854	1355.56189	-888.94940	
6128	61.270	-779.28412	43.37175	-642.00836	791.29761	41.32528	-619.14404	-710.58051	-12.37544	490.86975	703.96857	-18.82922	596.16931	15.65381	1355.20276	-889.27258	
6129	61.280	-779.37207	43.24378	-642.09308	791.19916	41.17679	-619.20770	-710.72498	-12.28770	490.83481	703.92169	-18.72968	596.18347	15.57408	1354.87341	-889.32471	
6130	61.290	-779.51709	43.22646	-642.21381	791.12848	41.00594	-619.18622	-710.84039	-12.16972	490.79697	703.85724	-18.61333	596.20178	15.61761	1354.65100	-889.64746	
6131	61.300	-779.58594	43.00787	-642.30164	790.98962	40.79373	-619.19476	-710.85858	-11.91401	490.68387	703.73895	-18.49603	596.19318	15.48386	1354.47583	-889.78607	
6132	61.310	-779.64197	42.60271	-642.10907	790.85504	40.58635	-619.27191	-710.95013	-11.75843	490.55499	703.52991	-18.31665	596.10651	15.34310	1354.27612	-890.02753	
6133	61.320	-779.80811	42.44318	-642.26483	790.72296	40.30081	-619.27106	-711.07196	-11.65538	490.55496	703.37079	-18.19535	595.98547	15.07235	1354.02783	-890.42792	
6134	61.330	-779.78302	42.00165	-642.29596	790.73932	40.12751	-619.25690	-711.22931	-11.49785	490.51532	703.31561	-18.05938	595.94891	15.00631	1353.87939	-890.68903	
6135	61.340	-779.82446	41.63992	-642.31506	790.70068	39.95402	-619.34393	-711.33838	-11.37251	490.46558	703.20697	-17.90513	595.89191	14.80326	1353.48083	-891.50940	
6136	61.350	-779.83679	41.33039	-642.37231	790.72638	39.74689	-619.41742	-711.40619	-11.20944	490.40668	702.34857	-18.50983	595.59442	14.68135	1353.15662	-891.94324	
6137	61.360	-779.89252	41.26059	-642.53351	790.69489	39.66328	-619.49994	-711.42108	-11.14720	490.41202	702.39746	-18.06276	595.70752	14.64445	1352.89185	-892.58215	
6138	61.370	-780.01410	41.30939	-642.56018	790.63171	39.55362	-619.59137	-711.44952	-11.09719	490.41412	702.69379	-17.75685	595.52704	14.68738	1352.42114	-893.35413	
6139	61.380	-780.00043	41.05467	-642.53198	790.44818	39.28448	-619.65906	-711.48126	-10.97522	490.44150	702.86292	-17.41550	595.59100	14.77763	1352.18298	-894.13916	
6140	61.390	-780.06689	40.75090	-642.57233	790.42285	38.98951	-619.62061	-711.62823	-10.82445	490.37180	702.59076	-17.33795	595.58502	14.82978	1351.99036	-894.70251	
6141	61.400	-780.16486	40.54916	-642.63251	790.41455	38.69963	-619.72357	-711.72131	-10.80462	490.45126	702.45178	-17.15314	595.55701	14.56210	1351.84485	-895.15082	
6142	61.410	-780.27441	40.41415	-642.75427	790.31586	38.77745	-619.80560	-711.77789	-10.68092	490.49426	702.56189	-16.93256	595.54913	14.67149	1351.68811	-895.36005	
6143	61.420	-780.28705	40.43788	-642.81256	790.28699	38.73439	-619.83673	-711.85254	-10.45336	490.30545	702.85760	-16.48305	595.54675	14.58797	1351.61414	-895.44562	
6144	61.430	-780.28113	40.46159	-642.80615	790.26385	38.41579	-619.89532	-711.93146	-10.28118	490.23227	702.83679	-16.38150	595.56653	14.47905	1351.46338	-895.49249	
6145	61.440	-780.36597	40.17978	-642.98004	790.18079	38.25021	-619.97076	-712.04974	-10.09326	490.17844	702.86853	-16.30354	595.54120	14.36544	1351.12061	-895.43274	
6146	61.450	-780.54590	39.75478	-643.19006	790.07001	38.03330	-620.02734	-712.09454	-10.04790	490.12405	702.80469	-16.18218	595.51306	14.36650	1350.82813	-895.56348	
6147	61.460	-780.60486	39.55345	-643.26819	790.00977	37.84709	-620.06494	-712.12482	-10.02847	490.06387	702.78094	-16.01445	595.45984	14.43061	1350.51929	-895.77313	
6148	61.470	-780.68408	39.53700	-643.29456	790.06140	37.65514	-620.09436	-712.35089	-9.60770	489.78052	702.72858	-15.96749	595.39447	14.37731	1350.29321	-896.08026	
6149	61.480	-780.65552	39.48679	-643.25330	789.99048	37.65533	-620.17639	-712.28754	-9.55199	489.75967	702.52869	-15.93816	595.44202	14.23042	1350.21619	-896.38263	
6150	61.490	-780.68140	39.48370	-643.30518	790.00256	37.57731	-620.20190	-712.25958	-9.47619	489.74521	702.65930	-15.78015	595.46326	14.11537	1350.12634	-896.82117	
6151	61.500	-780.70721	39.34457	-643.39496	790.00421	37.41224	-620.18787	-712.31891	-9.38524	489.71863	702.52594	-15.71581	595.42224	13.83302	1349.77917	-897.46881	
6152	61.510	-780.80084	39.28382	-643.50238	789.95514	37.26676	-620.21124	-712.44983	-9.33551	489.71338	702.47803	-15.71129	595.49170	13.85376	1349.47571	-897.96234	
6153	61.520	-780.81158	39.20993	-643.46411	789.84729	37.11281	-620.25098	-712.43152	-9.31390	489.70279	702.31970	-15.43496	595.28442	14.14253	1349.31763	-898.66284	
6154	61.530	-780.73645	39.15369	-643.45929	789.79718	37.04085	-620.25787	-712.37067	-9.17407	489.72003	702.48505	-15.19526	595.32043	14.18679	1349.19824	-899.02246	
6155	61.540	-780.75140	39.12205	-643.48346	789.75061	37.03219	-620.23798	-712.31555	-9.09316	489.72150	702.64105	-15.05277	595.49091	14.12387	1349.23682	-899.58514	
6156	61.550	-780.88904	39.05610	-643.58820	789.62354	36.75664	-620.41833	-712.34680	-9.04536	489.62637	702.46741	-15.00110	595.45197	14.05512	1349.07837	-900.01276	
6157	61.560	-780.70422	38.97677	-643.44489	789.53687	36.60504	-620.46124	-712.42194	-8.99376	489.62842	702.33234	-15.00755	595.35004	13.87365	1348.86194	-900.22778	
6158	61.570	-780.85718	38.86040	-643.51733	789.48511	36.47859	-620.47827	-712.35352	-9.04732	489.69995	702.13220	-14.92544	595.35388	13.74980	1348.57971	-900.20056	
6159	61.580	-781.09021	38.55429	-643.65643	789.47784	36.38705	-620.50037	-712.24609	-8.92341	489.80191	702.15552	-14.84775	595.38580	13.78214	1348.46301	-900.16962	
6160	61.590	-781.10913	38.54993	-643.61371	789.41864	36.36984	-620.55139	-712.15833	-8.85269	489.78833	702.09174	-14.75989	595.38470	13.81247	1348.41858	-900.22211	
6161	61.600	-781.12476	38.51748	-643.71228	789.42596	36.31100	-620.55792	-712.20203	-8.69291	489.67215	702.16132	-14.68571	595.32550	13.85372	1348.35388	-900.15869	
6162	61.610	-781.15515	38.43561	-643.78326	789.38843	36.21174	-620.58142	-712.11987	-8.86984	489.39838	702.10059	-14.64894	595.27881	13.80293	1348.23071	-900.08508	
6163	61.620	-781.14124	38.43295	-643.89484	789.33179	36.09518	-620.63391	-712.70508	-8.39365	489.56879	702.04199	-14.65271	595.28223	13.82058	1347.91333	-900.04797	
6164	61.630	-781.37531	38.04193	-643.86298	789.28741	36.02459	-620.69135	-712.62762	-8.55971	489.66153	702.02765	-14.60734	595.31335	13.85033	1347.77722	-900.15009	
6165	61.640	-781.22632	37.96872	-643.64191	789.24213	35.94675	-620.71649	-712.60883	-8.63091	489.68509	702.00702	-14.56468	595.32886	13.77063	1347.67676	-900.43671	
6166	61.650	-781.24164	37.89743	-643.68048	789.22144	35.95874	-620.71979	-712.62909	-8.55050	489.65790	702.02759	-14.48716	595.29572	13.69175	1347.67273	-900.80707	
6167	61.660	-781.31451	37.90508	-643.65302	789.22198	35.92143	-620.75500	-712.65942	-8.42684	489.59708	701.94373	-14.46271	595.22894	13.63943	1347.61084	-901.05334	
